<?xml version="1.0" encoding="utf-8"?>
<!-- Generator: Adobe Illustrator 21.1.0, SVG Export Plug-In . SVG Version: 6.00 Build 0)  -->
<svg version="1.1" id="Layer_1" xmlns="http://www.w3.org/2000/svg" xmlns:xlink="http://www.w3.org/1999/xlink" x="0px" y="0px"
	 viewBox="0 0 745.6 346.7" style="enable-background:new 0 0 745.6 346.7;" xml:space="preserve">
<style type="text/css">
	.st0{fill:#00703C;}
	.st1{fill:none;}
	.st2{fill:#FFFFFF;}
	.st3{fill-rule:evenodd;clip-rule:evenodd;fill:#FFFFFF;}
</style>
<path class="st0" d="M181.8,247.1v38.5h-53.6v-38.5H31.5v-41l98.2-140h52.1v137.1h24.3v43.9H181.8z M131.7,134.4h-0.6l-43.3,68.8
	h43.9V134.4z"/>
<path class="st0" d="M690.6,247.1v38.5H637v-38.5h-96.7v-41l98.2-140h52.1v137.1h24.3v43.9H690.6z M640.5,134.4h-0.6l-43.3,68.8
	h43.9V134.4z"/>
<rect x="-281.9" y="-122.6" class="st1" width="1280" height="700"/>
<g>
	<path class="st0" d="M489.2,115.9c-9-8.7-5.8-22.2-5.8-22.2c-23-1.2-18-19.5-18-19.5c-3.1-0.3-14.5,2.2-35.3-6
		c-23.7-9.7-52.1-10.1-57.2-10.1c-5.1,0-33.4,0.4-57.1,10.1c-20.8,8.2-32.1,5.7-35.3,6c0,0,5,18.3-18,19.5c0,0,3.2,13.5-5.8,22.2
		c-8.2,8-18,25.3-8.7,40.2c0,0-10.9,15.1,5.3,35.9c12.3,14.5,8.8,20.1,8.5,26.5c0,0,21.4,0.6,19.2,19.5c0,0,22.4-1.6,39.7,8.2
		c16.9,9.5,41.5,9.2,52.1,9.1c10.6,0,35.2,0.4,52.1-9.1c17.3-9.8,39.7-8.2,39.7-8.2c-2.2-18.9,19.2-19.5,19.2-19.5
		c-0.3-6.3-3.8-12,8.5-26.5c16.2-20.8,5.3-35.9,5.3-35.9C507.1,141.2,497.4,123.9,489.2,115.9z"/>
	<path class="st2" d="M376,249.6l-3,0l-3,0c-13.2,0-32.3-0.9-46.1-8.7c-12.2-6.9-27.2-7.6-33.2-7.6c-2,0-3.2,0.1-3.3,0.1l-1.2,0.1
		l0.1-1.2c0.5-4.5-0.4-8.3-2.9-11.1c-4.9-5.6-14-6-14.1-6l-1,0l0-1c0-1,0.2-1.9,0.3-2.9c0.7-4.9,1.3-10.1-8-21.1
		c-13.7-17.6-7.1-31.2-5.4-34.1c-8.8-15,1.8-31.4,8.6-38.1c7.9-7.7,5.1-19.6,5.1-19.8l-0.3-1.2l1.2-0.1c6.7-0.4,11.4-2.4,14-5.9
		c3.5-4.8,1.8-10.9,1.8-11l-0.3-1.1l1.2-0.1c0.6-0.1,1.4,0,2.5,0c1,0,2.2,0.1,3.6,0.1c8.2,0,16.9-1.8,26.5-5.6
		c22-9,48.3-9.5,53.4-9.5h0.5c5.1,0,31.4,0.5,53.4,9.5c9.6,3.8,18.3,5.6,26.5,5.6c1.4,0,2.6-0.1,3.6-0.1c1.1-0.1,1.9-0.1,2.5,0
		l1.2,0.1l-0.3,1.1c0,0.1-1.6,6.2,1.8,11c2.6,3.6,7.3,5.6,14,5.9l1.2,0.1l-0.3,1.2c0,0.1-2.8,12.1,5.1,19.8
		c6.9,6.7,17.4,23.2,8.6,38.1c1.7,2.9,8.3,16.5-5.4,34.1c-9.4,11-8.7,16.1-8,21.1c0.1,1,0.3,1.9,0.3,2.9l0.1,1l-1,0
		c-0.1,0-9.2,0.3-14.1,6c-2.4,2.8-3.4,6.6-2.9,11.1l0.1,1.2l-1.2-0.1c0,0-1.2-0.1-3.3-0.1c-5.9,0-21,0.7-33.2,7.6
		C408.4,248.7,389.2,249.6,376,249.6z M373,247.6l3,0c8.3,0,30.2,0,45.1-8.4c12.6-7.1,28.1-7.8,34.1-7.8c0.9,0,1.7,0,2.2,0
		c-0.3-4.6,0.9-8.5,3.5-11.5c4.5-5.2,11.8-6.3,14.5-6.6c-0.1-0.6-0.1-1.2-0.2-1.8c-0.7-5.1-1.4-10.9,8.5-22.6
		c14.5-18.5,5-32.1,4.9-32.3l-0.4-0.5l0.3-0.6c8.7-14-1.4-29.8-8-36.2c-7.3-7.1-6.4-17.1-5.8-20.5c-6.8-0.6-11.6-2.8-14.4-6.7
		c-3-4.2-2.7-9.2-2.4-11.5c-0.3,0-0.7,0-1.1,0c-1,0-2.2,0.1-3.7,0.1c-8.5,0-17.4-1.9-27.3-5.8c-21.7-8.9-47.7-9.3-52.7-9.3h-0.5
		c-5,0-31,0.4-52.6,9.3c-9.9,3.9-18.8,5.8-27.3,5.8c-1.5,0-2.7-0.1-3.7-0.1c-0.4,0-0.8,0-1.1,0c0.4,2.3,0.7,7.2-2.4,11.5
		c-2.8,3.9-7.6,6.1-14.4,6.7c0.5,3.4,1.4,13.4-5.9,20.5c-6.6,6.4-16.7,22.2-8,36.2l0.3,0.6l-0.4,0.5c-0.4,0.6-9.5,13.8,5,32.3
		c9.9,11.6,9.1,17.4,8.4,22.6c-0.1,0.6-0.2,1.2-0.2,1.8c2.7,0.3,10,1.4,14.5,6.6c2.6,3,3.8,6.9,3.5,11.5c0.6,0,1.3,0,2.2,0
		c6.1,0,21.6,0.8,34.1,7.8c14.9,8.4,36.9,8.4,45.1,8.4L373,247.6z"/>
	<g>
		<path class="st0" d="M234,212.9c0,4.6-0.7,9-1.9,13.2c36.6-7.7,86.4-12.4,141.1-12.4c54.8,0,104.5,4.7,141.1,12.4
			c-1.2-4.2-1.9-8.6-1.9-13.2c0-13.3,5.7-25.4,14.8-34c-37.4-9.4-92.5-15.4-154-15.4c-61.5,0-116.6,6-154,15.4
			C228.3,187.5,234,199.6,234,212.9z"/>
	</g>
	<path class="st2" d="M373.2,216.6c53.7,0,102.9,3.6,141.5,9.5c-35.5-8.1-85.8-13.2-141.5-13.2c-55.7,0-106,5.1-141.5,13.2
		C270.3,220.1,319.5,216.6,373.2,216.6z"/>
	<path class="st2" d="M373.2,167.5c58.3,0,111.8,4.3,153.7,11.4c-38.6-9.8-93.2-16-153.7-16c-60.5,0-115.1,6.1-153.7,16
		C261.4,171.8,314.9,167.5,373.2,167.5z"/>
	<path class="st2" d="M252.9,202l0.8,5.3c0.1,0.5,0.2,0.9,0.2,1.3c0.1,0.6,0.2,1,0.3,1.1c0.1,0.3,0.4,0.6,0.8,0.8
		c0.2,0.1,0.9,0.2,2,0.3c0.8,0.1,1.3,0.3,1.4,0.7c0.1,0.5-0.2,0.9-0.9,1l-6.7,0.8l-6.1,1.1c-0.7,0.1-1.1-0.1-1.2-0.7
		c0-0.3,0-0.5,0.2-0.7c0.2-0.2,0.5-0.3,0.8-0.4c1.6-0.4,2.4-1.2,2.4-2.3c0-0.3,0-0.7-0.1-1.2l-2.5-16.7c-0.2-1.2-0.4-1.9-0.7-2.3
		c-0.4-0.5-1.1-0.7-2.2-0.6c-0.1,0-0.5,0-1.2,0c-0.2-0.1-0.3-0.2-0.3-0.5c-0.1-0.6,0.2-0.9,0.9-1c0,0,0.5-0.1,1.6-0.2
		c0.4-0.1,0.9-0.1,1.4-0.2c0.4-0.1,1.3-0.2,2.6-0.3c0.6-0.1,1.4-0.2,2.4-0.4c1.2-0.2,2-0.4,2.4-0.4c0.5-0.1,1.2-0.2,2.2-0.4
		c1-0.2,1.7-0.3,2.2-0.4c1.8-0.3,3-0.3,3.8-0.3c1,0,2,0.3,3,0.7c2.5,1.1,3.9,2.9,4.3,5.4c0.2,1.4,0,2.7-0.5,4.1
		c-0.5,1.4-1.3,2.5-2.4,3.5c-1.1,0.9-2.6,1.6-4.4,1.9l-0.9,0.1c-0.3,0-0.6,0-1.1,0c-0.4,0-0.8-0.1-1.2-0.1c0,0-0.4,0-1-0.1
		c-0.9-0.1-1.5-0.1-1.7-0.1c-0.3,0-0.4,0.2-0.5,0.6L252.9,202z M252.3,197.6c0.1,0.8,0.3,1.3,0.5,1.4c0.5,0.3,1.3,0.4,2.4,0.2
		c2.2-0.3,3.6-1.6,4-3.6c0.2-0.9,0.2-1.8,0.1-2.8c-0.2-1.5-0.9-2.8-2-3.8c-1.1-1-2.4-1.4-4-1.1c-0.9,0.1-1.5,0.5-1.8,1
		c-0.3,0.6-0.4,1.3-0.2,2.3L252.3,197.6z"/>
	<path class="st2" d="M291,196c0-0.5-0.1-0.7-0.1-0.8c-0.1-0.2-0.3-0.3-0.7-0.2l-9.3,1c-0.3,0-0.4,0.1-0.5,0.2
		c-0.1,0.1-0.1,0.4-0.1,0.9c0,0.1,0,0.3,0.1,0.6l0.7,5.9c0,0.4,0.1,0.7,0.1,0.9c0.1,0.5,0.2,1.1,0.5,1.8c0.1,0.6,1,0.9,2.6,1
		c0.8,0,1.3,0.2,1.4,0.8c0.1,0.5-0.2,0.9-0.9,1l-6.7,0.6l-6.2,0.9c-0.7,0.1-1.1-0.1-1.2-0.7c0-0.3,0.1-0.5,0.3-0.7
		c0.2-0.2,0.5-0.3,0.8-0.3c1.6-0.3,2.4-1.1,2.4-2.2c0-0.3,0-0.7,0-1.2l-1.8-16.7c-0.1-1.1-0.4-1.9-0.7-2.3c-0.3-0.4-1.1-0.7-2.1-0.7
		c-0.5,0-0.9,0-1.1-0.1c-0.2-0.1-0.4-0.3-0.5-0.6c0-0.3,0-0.6,0.2-0.7c0.2-0.1,0.4-0.2,0.7-0.2c0.3,0,1.4-0.1,3.6-0.3l3.2-0.3
		c0.4,0,0.9-0.1,1.6-0.2c0.7-0.1,1.2-0.2,1.5-0.2c0.3,0,0.8-0.1,1.5-0.2c0.7-0.1,1.2-0.2,1.6-0.2c0.6-0.1,1,0.1,1.1,0.6
		c0.1,0.3,0,0.5-0.1,0.6c-0.1,0.1-0.3,0.2-0.4,0.3c-0.6,0.2-1.4,0.5-2.4,1c-0.5,0.4-0.6,1.6-0.4,3.6l0.4,4.1c0.1,0.7,0.1,1,0.2,1.1
		c0.1,0.2,0.5,0.3,1.1,0.3c0.1,0,0.3,0,0.4,0l7.8-0.9c0.6-0.1,1-0.2,1.1-0.3c0.2-0.1,0.2-0.4,0.1-0.9l-0.6-5.5
		c-0.2-1.5-0.5-2.4-1.1-2.7c-0.3-0.2-0.8-0.3-1.5-0.3c-0.7-0.1-1.2-0.1-1.4-0.2c-0.2-0.1-0.4-0.3-0.4-0.5c-0.1-0.6,0.2-0.9,0.9-0.9
		l6.7-0.6l6.2-0.9c0.7-0.1,1.2,0.1,1.2,0.7c0,0.3-0.4,0.7-1.2,1c-0.7,0.2-1.2,0.3-1.5,0.5c-0.5,0.3-0.8,0.7-0.9,1.1
		c0,0.1,0,0.4,0,0.8c0,0.4,0,0.8,0,1.1l0.1,0.9l1.7,15.1c0,0.4,0.1,0.7,0.1,0.8c0.1,0.9,0.4,1.6,0.8,2.2c0.3,0.3,1,0.6,2.2,0.7
		c1,0,1.5,0.2,1.6,0.8c0,0.4-0.1,0.6-0.3,0.7c-0.2,0.1-0.6,0.2-1.2,0.3l-6.2,0.5l-6.3,0.9c-0.7,0.1-1.1-0.1-1.2-0.7
		c0-0.4,0.3-0.7,1.2-1.1c0.6-0.2,1.1-0.5,1.7-0.7c0.3-0.3,0.6-0.6,0.6-0.9c0.1-0.3,0.1-0.9,0-1.7L291,196z"/>
	<path class="st2" d="M307.2,184.6c-0.1-1.1-0.3-1.8-0.6-2.1c-0.4-0.4-1.1-0.7-2.2-0.7c-0.4,0-0.7-0.1-1-0.2
		c-0.3-0.1-0.4-0.3-0.4-0.6c0-0.5,0.3-0.8,1-0.9c1.9-0.1,3-0.2,3.4-0.2c1-0.1,2-0.1,3.3-0.1c0.5,0,2-0.2,4.6-0.4
		c0.3,0,0.9-0.1,1.7-0.2c0.7-0.1,1.1,0.2,1.1,0.7c0,0.4-0.3,0.7-1.1,0.9c-1.5,0.3-2.3,0.8-2.5,1.5c-0.1,0.7-0.2,1.4-0.1,2
		c0,0.2,0,0.5,0.1,0.9l0.7,9.9c0,0.7,0.1,1.1,0.1,1.4c0.1,1.6,0.4,3.1,0.8,4.3c0.4,1.3,1.3,2.2,2.6,2.8c1.2,0.5,2.5,0.8,4,0.7
		c1.7-0.1,3.2-0.6,4.4-1.4c1.5-0.9,2.3-2.1,2.5-3.6c0.1-0.8,0.1-2,0-3.7l-0.8-10.8c-0.1-1.1-0.1-1.8-0.2-2.1c-0.2-0.8-0.5-1.4-1-1.8
		c-0.5-0.4-1.1-0.5-1.9-0.5l-0.8,0c-0.2,0-0.5,0-0.7-0.1c-0.1-0.1-0.2-0.3-0.3-0.6c0-0.3,0.1-0.6,0.3-0.7c0.2-0.1,0.6-0.2,1.2-0.2
		l7.8-0.5c0.6,0,1,0.2,1,0.7c0,0.5-0.4,0.9-1.4,1c-1.2,0.1-1.9,0.8-2,1.9c-0.1,0.5-0.1,1.4,0,2.6l0.8,12c0.2,3.1-0.4,5.3-1.9,6.7
		c-2,1.9-4.9,3-8.7,3.3c-6.6,0.5-10.6-1-12-4.5c-0.6-1.4-0.9-2.8-1-4.4L307.2,184.6z"/>
	<path class="st2" d="M363.2,181.7c0,0.1,0,0.4,0.1,0.7c0,0.5-0.3,0.8-0.8,0.8c-0.3,0-0.9-0.3-1.6-1.1l-0.7-1
		c-0.8-1.1-1.9-1.9-3.2-2.4c-0.7-0.3-1.6-0.4-2.6-0.3c-1.9,0.1-3.5,0.7-5,1.8c-1.4,1.1-2.4,2.5-3.2,4.3c-0.8,1.8-1.1,3.9-1.1,6.3
		c0,0.9,0.1,1.7,0.2,2.3c0.2,2.3,1.1,4.4,2.5,6.3c1.9,2.5,4.3,3.7,7.3,3.6c3.1-0.1,5.5-2,7.2-5.8l0.5-0.7c0.1-0.1,0.3-0.2,0.6-0.2
		c0.6,0,0.9,0.3,0.9,1.1l0,0.6l0,1.8c0,0.3,0,0.6-0.1,1c0,0.3-0.1,0.5-0.2,0.7c-0.1,0.3-0.5,0.7-1.1,1c-2.3,1.4-5,2.2-8.4,2.3
		c-6.9,0.2-12-1.9-15.1-6.3c-0.5-0.7-0.9-1.4-1.3-2.3c-0.7-1.5-1.1-3.1-1.1-4.7c-0.1-2.8,0.7-5.4,2.3-7.6c1.5-2.2,3.6-3.9,6.4-5.1
		c2.8-1.2,5.7-1.9,8.8-2c2.5-0.1,4.7,0.1,6.6,0.6c0.6,0.1,0.9,0.3,1.1,0.5c0.1,0.2,0.3,0.6,0.4,1.2L363.2,181.7z"/>
	<path class="st2" d="M391.5,198.2c0,1.8,0.4,3,1.2,3.6c0.6,0.3,1.3,0.5,2.2,0.5c1.5,0,2.6-0.2,3.5-0.7c0.9-0.4,1.6-1,2.3-1.9
		l1.4-1.9c0.3-0.4,0.7-0.7,1.1-0.7c0.5,0,0.8,0.3,0.8,1c0,0.5-0.1,1.3-0.4,2.6l-0.4,2.5c0,0.5-0.2,0.8-0.7,0.8l-21.2-0.4
		c-0.7,0-1-0.3-1.1-0.9c0-0.3,0.1-0.5,0.4-0.7c0.2-0.2,0.5-0.2,0.8-0.2c1.6-0.1,2.5-0.8,2.7-1.9c0.1-0.3,0.1-0.7,0.1-1.2l0.3-16.8
		c0-1.1-0.1-1.9-0.4-2.4c-0.3-0.5-1-0.8-2-1c-0.5-0.1-0.8-0.1-1-0.2c-0.2-0.1-0.3-0.3-0.4-0.6c0-0.3,0.1-0.6,0.3-0.7
		c0.2-0.1,0.4-0.1,0.7-0.1c0.3,0,1.5,0.1,3.6,0.2l3.2,0.1c0.4,0,0.9,0,1.6,0c0.7,0,1.2,0,1.5,0c0.3,0,0.8,0,1.5,0c0.7,0,1.2,0,1.6,0
		c0.6,0,1,0.3,1,0.8c0,0.3,0,0.5-0.2,0.6c-0.1,0.1-0.3,0.1-0.4,0.2c-0.6,0.1-1.4,0.3-2.5,0.7c-0.5,0.4-0.8,1.5-0.8,3.6L391.5,198.2z
		"/>
	<path class="st2" d="M406.1,190.8c0.2-2.9,1.2-5.4,3-7.6c1.7-2.1,4-3.7,6.8-4.7c1.9-0.7,4-1,6.3-0.8c3.1,0.2,6,1,8.5,2.5
		c2.7,1.6,4.6,3.8,5.8,6.5c0.8,1.8,1.1,3.7,1,5.8c-0.1,2.5-0.9,4.7-2.2,6.7c-1.4,2-3.2,3.6-5.4,4.7c-2.5,1.3-5.3,1.8-8.4,1.6
		c-4.9-0.3-8.7-1.9-11.5-4.9c-1.3-1.4-2.3-3-2.9-4.7C406.3,194.4,406,192.6,406.1,190.8z M413.8,190c-0.2,2.4,0.1,4.6,0.8,6.8
		c0.6,1.9,1.5,3.5,2.6,4.8c1.3,1.5,2.9,2.3,4.8,2.4c3,0.2,5.2-1.6,6.8-5.2c0.7-1.6,1.1-3.5,1.2-5.7c0.2-3.3-0.3-6.4-1.6-9.1
		c-1.5-3.1-3.6-4.8-6.4-5c-3-0.2-5.3,1.5-6.9,5.3C414.3,186.1,413.9,187.9,413.8,190z"/>
	<path class="st2" d="M464.1,198.6l1.1-10.4c0.2-1.6,0.1-2.7-0.2-3.3c-0.3-0.6-1-1.1-2.1-1.4l-0.9-0.1c-0.5-0.1-0.7-0.3-0.7-0.8
		c0.1-0.6,0.6-0.8,1.7-0.7l7.7,0.8c0.8,0.1,1.2,0.4,1.1,0.9c-0.1,0.5-0.6,0.8-1.6,0.7l-0.3,0c-0.8-0.1-1.5,0.1-1.9,0.6
		c-0.4,0.5-0.7,1.2-0.7,2.1c0,0.3-0.1,0.6-0.1,1l-2.2,20.9c-0.1,0.5-0.2,0.8-0.3,1c-0.2,0.2-0.5,0.2-1,0.2c-0.5,0-0.8-0.2-1.1-0.5
		c-0.2-0.2-0.3-0.4-0.4-0.6c-0.3-0.3-0.4-0.6-0.6-0.9l-14.9-22.8l-1.5,14.1c-0.2,1.5-0.2,2.3-0.2,2.6c0,1.1,0.2,2,0.6,2.5
		c0.4,0.5,1,0.8,1.9,0.9c1.2,0.1,1.8,0.5,1.7,1c-0.1,0.7-0.5,0.9-1.4,0.8l-4.1-0.6l-4.2-0.3c-0.8-0.1-1.1-0.4-1.1-1.1
		c0-0.4,0.2-0.6,0.5-0.6c0.2-0.1,0.7-0.1,1.4,0c1,0.1,1.7-0.4,2.1-1.7c0.2-0.6,0.4-1.6,0.5-3l1.6-15.4c0.1-0.9,0.1-1.6-0.1-2
		c-0.2-0.6-0.7-1-1.5-1.2l-0.6-0.1c-0.4-0.1-0.7-0.2-0.7-0.2c-0.2-0.1-0.2-0.4-0.2-0.7c0.1-0.5,0.6-0.7,1.5-0.6l7.7,0.8
		c0.8,0.1,1.3,0.2,1.4,0.3c0.1,0.1,0.5,0.6,1,1.4L464.1,198.6z"/>
	<path class="st2" d="M500,205.1l-0.5,5.6c0,0.4-0.6,0.9-1.6,1.4c-0.8,0.4-2.1,0.8-3.9,1c-1.8,0.2-3.7,0.1-5.7-0.2
		c-3-0.5-5.6-1.4-7.9-2.7c-2.6-1.5-4.6-3.4-5.8-5.7c-1.2-2.3-1.6-4.8-1.2-7.6c0.3-2.2,1.1-4.1,2.4-5.7c1.9-2.4,4.5-4.1,7.7-5.1
		c3-1,6.2-1.2,9.4-0.7c0.5,0.1,0.8,0.2,1.2,0.2c0.9,0.2,1.9,0.5,3.1,0.9l1.4,0.5c0.9,0.4,1.6,0.7,1.8,1.1c0,0.1,0,0.4,0.1,0.9l0,1.4
		c0,0.4,0,0.8,0,1.3c0,0.4,0,0.7,0,0.8c-0.1,0.6-0.5,0.9-1.1,0.8c-0.4-0.1-0.9-0.7-1.6-2c-0.9-1.6-1.4-2.5-1.6-2.7
		c-0.7-0.7-1.9-1.2-3.6-1.5c-2-0.3-3.7-0.1-5.2,0.8c-3.2,1.7-5.1,4.9-5.9,9.6c-0.2,1.3-0.3,2.7-0.2,4.2c0.1,1.5,0.4,2.8,0.9,4.2
		c1.1,3.1,3.4,4.9,6.7,5.4c1.4,0.2,2.4,0.1,3-0.4c0.4-0.4,0.7-1.4,0.9-2.8l0.3-1.7c0.2-1.3,0.3-2.1,0.3-2.3c0-1-0.2-1.7-0.6-2
		c-0.5-0.4-1.2-0.6-2.2-0.8c-0.8-0.1-1.2-0.5-1.1-1.1c0.1-0.7,0.7-0.9,1.9-0.7L503,201c0.7,0.1,1,0.5,0.9,1
		c-0.1,0.5-0.6,0.8-1.5,0.8c-0.9,0.1-1.5,0.2-1.8,0.5C500.4,203.5,500.2,204.1,500,205.1z"/>
	<path class="st0" d="M304.2,269.6h-1.9c-4.8,0-8.4,3.4-8.4,7.9c0,5.5,4.2,7.9,7.3,7.9h3v2.7h-3c-5.9,0-10.3-4.5-10.3-10.6
		c0-5.1,4.2-10.6,11.1-10.6h2.2V269.6z"/>
	<path class="st0" d="M313.4,273.3c4,0,7.5,3.1,7.5,7.6c0,4.5-3.5,7.6-7.5,7.6c-4,0-7.5-3.1-7.5-7.6
		C305.8,276.4,309.3,273.3,313.4,273.3z M313.4,285.9c2.8,0,4.8-2.1,4.8-5c0-3-2-5-4.8-5c-2.8,0-4.8,2.1-4.8,5
		C308.6,283.9,310.6,285.9,313.4,285.9z"/>
	<path class="st0" d="M323.4,288.2v-15.9c0-3.3,2.1-5.3,5.1-5.3h2.2v2.5h-1.9c-1.8,0-2.8,0.8-2.8,2.7v1.4h4.4v2.5H326v12H323.4z"/>
	<path class="st0" d="M331.8,288.2v-15.9c0-3.3,2.2-5.3,5.1-5.3h2.2v2.5h-1.9c-1.8,0-2.8,0.8-2.8,2.7v1.4h4.4v2.5h-4.4v12H331.8z"/>
	<path class="st0" d="M344.3,283.4l-1.1-2.1l7.2-4c-0.9-0.9-1.7-1.4-3.3-1.4c-2.8,0-4.8,2.1-4.8,5c0,3,2,5,4.8,5
		c3.2,0,4.3-1.9,4.9-4.5l2.7,0.3c-0.3,3.8-3.4,6.8-7.6,6.8c-4,0-7.5-3.1-7.5-7.6c0-4.5,3.5-7.6,7.5-7.6c3.4,0,5.7,1.8,7,4.6
		L344.3,283.4z"/>
	<path class="st0" d="M361.1,283.4l-1.1-2.1l7.2-4c-0.9-0.9-1.7-1.4-3.3-1.4c-2.8,0-4.8,2.1-4.8,5c0,3,2,5,4.8,5
		c3.2,0,4.3-1.9,4.9-4.5l2.7,0.3c-0.3,3.8-3.4,6.8-7.6,6.8c-4,0-7.5-3.1-7.5-7.6c0-4.5,3.5-7.6,7.5-7.6c3.4,0,5.7,1.8,7,4.6
		L361.1,283.4z"/>
	<path class="st0" d="M395.7,269.6h-8.4c-0.5,0-0.6,0.2-0.6,0.4c0,0.3,0.3,0.7,0.7,1.2l8.8,11.3c0.5-0.7,0.7-1.5,0.7-2.7
		c0-1.5-0.5-2.8-2-4.5l1.9-2c1.9,1.9,2.9,3.8,2.9,6.5c0,1.9-0.6,3.6-1.6,5.1l2.5,3.2h-3.5l-1.1-1.2c-1.5,1.1-3.6,1.5-5.4,1.5
		c-5,0-8.9-3.6-8.9-8.6c0-2.8,1.2-5.5,3.6-7.1c-0.7-0.8-1.5-1.9-1.5-3c0-1.9,1.4-2.9,3.1-2.9h8.8V269.6z M387,275
		c-1.5,1.1-2.4,2.9-2.4,4.8c0,3.4,2.5,6,5.9,6c1.5,0,2.7-0.3,3.9-1.2L387,275z"/>
	<path class="st0" d="M409.4,267h13.3v2.7h-5.2v18.5h-2.8v-18.5h-5.2V267z"/>
	<path class="st0" d="M428.4,283.4l-1.1-2.1l7.2-4c-0.9-0.9-1.7-1.4-3.3-1.4c-2.8,0-4.8,2.1-4.8,5c0,3,2,5,4.8,5
		c3.2,0,4.3-1.9,4.9-4.5l2.7,0.3c-0.3,3.8-3.4,6.8-7.6,6.8c-4,0-7.5-3.1-7.5-7.6c0-4.5,3.5-7.6,7.5-7.6c3.4,0,5.7,1.8,7,4.6
		L428.4,283.4z"/>
	<path class="st0" d="M452.6,288.2V280c0-2.7-2.3-4.1-4.7-4.1c-2.9,0-4.8,2.3-4.8,5.1c0,2.7,2,5,4.8,5c1.5,0,2.8-0.9,3.7-2v3.2
		c-1.1,0.8-2.1,1.4-3.9,1.4c-4.2,0-7.1-3.5-7.1-7.7c0-4.1,2.8-7.4,7.5-7.4c4.5,0,7.3,2.7,7.3,6.9v7.9H452.6z"/>
	<path class="st2" d="M330.1,234.1c0-0.1,0-0.1,0-0.1c0.1-0.5,0.2-0.8,0.4-0.8c0.1,0,0.3,0.1,0.3,0.2c0.1,0.1,0.1,0.3,0.2,0.6
		c0.2,0.5,0.2,0.7,0.2,0.7c0.1,0.3,0.3,0.5,0.4,0.6c0.3,0.4,0.9,0.6,1.7,0.6c0.6,0,1.1-0.1,1.5-0.4c0.5-0.3,0.7-0.8,0.7-1.3
		c0-0.6-0.3-1.1-0.9-1.4c-0.3-0.2-0.7-0.3-1.1-0.5l-0.9-0.4c-0.7-0.3-1.3-0.7-1.8-1.2c-0.4-0.4-0.6-0.9-0.6-1.6
		c0-0.6,0.2-1.2,0.7-1.8c0.4-0.5,0.9-0.9,1.6-1.1c0.7-0.3,1.3-0.4,2-0.4c0.9,0,1.6,0.1,2.2,0.4c0.2,0,0.2,0.2,0.2,0.5v1.5
		c0,0.3-0.1,0.5-0.3,0.5c-0.2,0-0.4-0.1-0.5-0.4c-0.3-1.2-1-1.8-1.9-1.8c-0.5,0-0.9,0.1-1.3,0.4c-0.4,0.3-0.6,0.7-0.6,1.1
		c0,0.5,0.3,0.9,0.8,1.2c0.1,0,0.6,0.2,1.6,0.6c1,0.3,1.7,0.7,2.1,1.1c0.5,0.5,0.8,1.2,0.8,2.1c0,1.3-0.7,2.4-2,3.1
		c-0.6,0.4-1.4,0.5-2.3,0.5c-0.4,0-0.9-0.1-1.4-0.2c-0.6-0.1-1.1-0.2-1.4-0.4c-0.2-0.1-0.3-0.2-0.4-0.3c0-0.1-0.1-0.2-0.1-0.2
		c0-0.1,0-0.2,0-0.3l0-0.2V234.1z"/>
	<path class="st2" d="M340.3,231.3c0-0.3,0-0.5-0.1-0.6c-0.1-0.1-0.1-0.1-0.2-0.2c-0.1,0-0.2-0.1-0.4-0.1c0,0-0.1,0-0.1,0
		c-0.1,0-0.2,0-0.3-0.1c0,0-0.1-0.1-0.1-0.2c0-0.2,0.2-0.3,0.7-0.4c0.4-0.1,0.8-0.2,1.2-0.4c0.1-0.1,0.4-0.2,0.8-0.6
		c0.3-0.3,0.6-0.4,0.8-0.4c0.1,0,0.2,0,0.2,0.1c0,0.2,0,0.3,0,0.5v5.3c0,0.2,0,0.3,0,0.5c0,0.1,0,0.2,0,0.3c0,0.2,0.1,0.4,0.2,0.5
		c0.1,0,0.2,0.1,0.3,0.1l0.5,0.1c0.1,0,0.2,0,0.3,0.1c0,0,0.1,0.1,0.1,0.2c0,0.2-0.2,0.3-0.5,0.3h-4.1c-0.4,0-0.5-0.1-0.5-0.3
		c0-0.1,0-0.2,0.1-0.3c0.1,0,0.1,0,0.2-0.1c0.1,0,0.2,0,0.2,0c0.1,0,0.2,0,0.2,0c0.2,0,0.4-0.1,0.4-0.2c0.1-0.2,0.1-0.6,0.1-1.3
		V231.3z M340,226.5c0-0.4,0.2-0.7,0.5-0.9c0.3-0.2,0.6-0.3,1-0.3c0.4,0,0.7,0.1,1,0.3c0.3,0.2,0.4,0.5,0.4,0.9c0,0.4-0.1,0.7-0.4,1
		c-0.3,0.2-0.6,0.4-1.1,0.4c-0.4,0-0.7-0.1-1-0.4C340.1,227.3,340,226.9,340,226.5z"/>
	<path class="st2" d="M353.9,231.3c0,0,0,0.4,0,1.3v1.3v0.8c0,0.3,0,0.4,0,0.5c0,0.1,0.1,0.2,0.2,0.3c0.1,0,0.3,0.1,0.6,0.1
		c0.1,0,0.2,0,0.3,0.1c0.1,0.1,0.1,0.2,0.1,0.2c0,0.2-0.2,0.3-0.5,0.3h-3.9c-0.3,0-0.5-0.1-0.5-0.3c0-0.1,0.1-0.3,0.3-0.3
		c0.4-0.1,0.5-0.2,0.5-0.2c0.1-0.1,0.2-0.2,0.2-0.3c0-0.1,0-0.3,0-0.6v-0.9v-2c0-1.3-0.5-2-1.4-2c-0.5,0-0.9,0.2-1.2,0.4
		c-0.2,0.1-0.3,0.3-0.3,0.4c0,0.1-0.1,0.4-0.1,0.7v3.4c0,0.2,0,0.5,0.1,0.6c0.1,0.2,0.3,0.3,0.8,0.5c0.2,0,0.3,0.1,0.3,0.3
		c0,0.2-0.1,0.3-0.4,0.3h-4c-0.4,0-0.5-0.1-0.5-0.3c0-0.2,0.1-0.3,0.4-0.3c0.3-0.1,0.6-0.1,0.7-0.2c0.1-0.1,0.2-0.2,0.2-0.4
		c0-0.3,0-0.6,0-1v-2.7c0-0.3,0-0.5-0.1-0.6c-0.1-0.1-0.3-0.2-0.6-0.2c-0.1,0-0.2,0-0.3,0c-0.2,0-0.3-0.1-0.3-0.2
		c0-0.1,0.1-0.2,0.2-0.3c0,0,0.1-0.1,0.2-0.1c0.1,0,0.2,0,0.3-0.1c0.3-0.1,0.7-0.2,1.1-0.4c0.4-0.2,0.8-0.4,1-0.7
		c0.2-0.2,0.4-0.3,0.6-0.3c0.2,0,0.2,0.2,0.2,0.6v0.7c0.4-0.3,0.9-0.6,1.5-0.9c0.4-0.2,0.8-0.2,1.3-0.2c0.8,0,1.5,0.2,2.1,0.7
		c0.3,0.2,0.5,0.5,0.6,0.8C353.8,230.3,353.9,230.8,353.9,231.3z"/>
	<path class="st2" d="M358.3,231.9c0,0.6,0.1,1.1,0.4,1.7c0.3,0.5,0.6,0.9,1.1,1.3c0.5,0.3,1,0.5,1.5,0.5c0.5,0,1-0.1,1.5-0.4
		c0.2-0.1,0.3-0.2,0.4-0.2c0.1,0,0.2,0.1,0.2,0.2c0,0.5-0.5,0.9-1.6,1.3c-0.5,0.2-1,0.3-1.6,0.3c-1.7,0-2.9-0.6-3.8-1.7
		c-0.4-0.6-0.6-1.3-0.6-2.2c0-0.6,0.1-1.2,0.5-1.7c0.4-0.7,1.1-1.3,2-1.7c0.8-0.4,1.7-0.6,2.6-0.6c0.8,0,1.5,0.2,2,0.5
		c0.1,0.1,0.3,0.1,0.4,0.2c0.1,0.1,0.1,0.3,0.1,0.5c0,0.3,0,0.6-0.1,0.9c-0.1,0.4-0.3,0.6-0.5,0.6c-0.2,0-0.4-0.1-0.5-0.2
		c0-0.1-0.1-0.2-0.2-0.3c-0.2-0.3-0.4-0.7-0.8-1.3c-0.2-0.2-0.4-0.2-0.6-0.2c-0.7,0-1.3,0.4-1.7,1.3
		C358.4,231,358.3,231.4,358.3,231.9z"/>
	<path class="st2" d="M367.4,231.7c-0.2,0-0.3,0-0.3,0.1c0,0-0.1,0.2-0.1,0.3c0,0.5,0.1,1.1,0.4,1.5c0.2,0.5,0.6,0.9,1,1.2
		c0.4,0.3,0.9,0.4,1.5,0.4c0.5,0,1.1-0.2,1.7-0.6c0.2-0.1,0.4-0.2,0.5-0.2c0.1,0,0.1,0,0.2,0.1c0.1,0,0.1,0.1,0.1,0.1
		c0,0.3-0.3,0.6-0.9,0.9c-0.4,0.3-0.8,0.5-1.2,0.6c-0.5,0.2-1,0.3-1.5,0.3c-0.7,0-1.4-0.2-2.1-0.5c-0.7-0.3-1.2-0.8-1.6-1.4
		c-0.4-0.6-0.6-1.3-0.6-2.2c0-1.1,0.4-2,1.3-2.7c0.9-0.7,1.9-1.1,3.2-1.1c0.5,0,1,0.1,1.6,0.3c0.5,0.2,1,0.5,1.3,0.8
		c0.4,0.4,0.6,0.8,0.6,1.4c0,0.3-0.1,0.4-0.2,0.5c-0.1,0.1-0.3,0.1-0.7,0.1H367.4z M367.2,230.9c0,0.1,0,0.2,0.1,0.2
		c0.1,0,0.2,0.1,0.4,0.1c0.4,0,0.6,0,0.8,0l0.7,0c0.2,0,0.4-0.1,0.6-0.2c0.2-0.1,0.2-0.3,0.2-0.6c0-0.3-0.1-0.6-0.3-0.8
		c-0.2-0.2-0.5-0.3-0.8-0.3c-0.5,0-0.9,0.2-1.3,0.5C367.4,230,367.2,230.4,367.2,230.9z"/>
	<path class="st2" d="M381.8,228c0-0.4-0.1-0.6-0.4-0.6c-0.1,0-0.4,0.1-0.9,0.2c-0.4,0.1-0.7,0.2-1,0.2c-0.2,0-0.4-0.1-0.4-0.3
		c0-0.2,0.2-0.4,0.7-0.5c0.2-0.1,0.3-0.1,0.4-0.1c1.5-0.3,2.6-0.7,3.5-1.1c0.1-0.1,0.2-0.1,0.3-0.1c0.2,0,0.3,0.2,0.3,0.7v7.5
		c0,0.2,0,0.3,0,0.4c0,0.3,0,0.6,0.1,0.9c0,0.1,0.1,0.2,0.3,0.3c0.2,0.1,0.4,0.1,0.7,0.1c0.3,0,0.5,0,0.7,0.1c0.1,0,0.2,0.1,0.2,0.3
		c0,0.3-0.2,0.4-0.6,0.4l-1.3-0.1c-0.4,0-1,0-1.8-0.1l-1.2,0.1l-1.2,0.1c-0.4,0-0.5-0.1-0.5-0.4c0-0.2,0.1-0.3,0.3-0.3
		c0.1,0,0.2,0,0.5,0c0.5,0,0.8-0.1,1-0.2c0.3-0.2,0.4-0.4,0.4-0.9V228z"/>
	<path class="st2" d="M391.7,226.4c-0.5,0-0.8,0.2-1.1,0.7c-0.2,0.4-0.3,0.8-0.3,1.3c0,0.5,0.1,1.1,0.3,1.6c0.4,1.2,1,1.8,1.8,1.8
		l0.4,0l0.2,0c0.1,0,0.2,0.1,0.2,0.2c0,0.3-0.3,0.5-0.8,0.6c-0.4,0.1-0.8,0.1-1.1,0.1c-0.8,0-1.6-0.3-2.2-1
		c-0.6-0.6-0.9-1.4-0.9-2.2c0-1,0.4-1.9,1.1-2.6c0.7-0.8,1.7-1.2,2.8-1.2c1.3,0,2.3,0.5,3.1,1.4c0.8,0.9,1.1,1.9,1.1,3.2
		c0,1.1-0.3,2.2-0.9,3.3c-0.6,1-1.3,1.8-2.3,2.5c-0.6,0.4-1.3,0.9-2.1,1.3c-1,0.5-1.7,0.8-2.2,0.8c-0.1,0-0.1,0-0.2-0.1
		c0,0-0.1-0.1-0.1-0.2c0-0.2,0.2-0.3,0.6-0.4c1.7-0.6,3.1-1.8,4.1-3.6c0.5-1,0.8-2.1,0.8-3.3c0-0.6-0.1-1.2-0.3-1.8
		c-0.2-0.7-0.5-1.2-0.8-1.6C392.5,226.6,392.1,226.4,391.7,226.4z"/>
	<path class="st2" d="M402.6,235.9c0.9,0,1.3-0.7,1.3-2.2c0-1.3-0.3-2.3-0.9-3c-0.3-0.3-0.6-0.5-0.9-0.5c-0.2,0-0.4,0.1-0.7,0.2
		c-0.1,0.1-0.2,0.1-0.3,0.1c-0.1,0-0.1,0-0.1-0.1c0,0-0.1-0.1-0.1-0.2c0-0.2,0.2-0.3,0.5-0.5c0.5-0.3,1-0.5,1.6-0.5
		c0.6,0,1.1,0.2,1.6,0.5c0.5,0.3,0.9,0.8,1.1,1.3c0.3,0.5,0.4,1.1,0.4,1.8c0,1.1-0.4,2-1.2,2.7c-0.8,0.7-1.8,1.1-2.8,1.1
		c-0.8,0-1.5-0.2-2.2-0.6c-1-0.7-1.6-1.7-1.9-2.9c-0.1-0.4-0.1-0.8-0.1-1.3c0-1.3,0.3-2.5,1-3.6c0.8-1.3,1.9-2.3,3.3-3.1
		c0.4-0.2,0.8-0.4,1.2-0.6c0.8-0.3,1.5-0.5,2-0.5c0.3,0,0.4,0.1,0.4,0.3c0,0.1-0.3,0.2-0.9,0.4c-0.4,0.1-0.7,0.3-1.1,0.4
		c-0.4,0.1-0.7,0.4-1.1,0.7c-0.1,0.1-0.3,0.3-0.6,0.6c-0.1,0.2-0.3,0.4-0.6,0.7c-0.8,1.2-1.2,2.5-1.2,4.1c0,0.7,0.1,1.4,0.3,2.1
		c0.2,0.8,0.6,1.5,1,1.9C401.9,235.7,402.3,235.9,402.6,235.9z"/>
	<path class="st2" d="M413.4,230.1c0,0.2,0.2,0.4,0.5,0.5c0.4,0.2,0.7,0.3,0.8,0.3c0.7,0.6,1.1,1.4,1.1,2.3c0,0.6-0.2,1.2-0.6,1.7
		c-0.4,0.5-0.9,0.8-1.5,1.1c-0.7,0.3-1.4,0.5-2.3,0.5c-0.7,0-1.4-0.1-2-0.3c-1.4-0.5-2.1-1.3-2.1-2.4c0-0.5,0.1-0.9,0.3-1.2
		c0.1-0.2,0.2-0.3,0.3-0.4c0.3-0.2,0.7-0.4,1.2-0.7c0.3-0.1,0.4-0.2,0.5-0.2c0,0-0.1-0.1-0.1-0.1c-0.1-0.1-0.2-0.1-0.3-0.2
		c-0.1-0.1-0.3-0.2-0.7-0.5c-0.6-0.5-0.9-1.2-0.9-1.9c0-1.2,0.6-2,1.8-2.6c0.6-0.3,1.3-0.4,2.1-0.4c1.5,0,2.6,0.4,3.2,1.2
		c0.3,0.4,0.4,0.7,0.4,1.2c0,0.9-0.5,1.5-1.5,1.8C413.5,230,413.4,230.1,413.4,230.1z M410.5,231.7c-0.3,0-0.5,0.3-0.8,0.9
		c-0.1,0.3-0.2,0.6-0.2,1c0,0.8,0.3,1.5,0.9,1.9c0.3,0.2,0.7,0.3,1.2,0.3c0.5,0,0.9-0.2,1.3-0.5c0.4-0.3,0.6-0.7,0.6-1.2
		c0-0.2,0-0.3-0.1-0.4c0-0.3-0.2-0.7-0.6-1c-0.2-0.2-0.6-0.4-1.1-0.7C411.1,231.8,410.7,231.7,410.5,231.7z M412.6,229.8
		c0.2,0,0.4-0.3,0.6-0.8c0.1-0.2,0.1-0.4,0.1-0.7c0-0.6-0.2-1.1-0.5-1.5c-0.3-0.4-0.8-0.6-1.3-0.6c-0.4,0-0.8,0.1-1.2,0.4
		c-0.3,0.3-0.5,0.6-0.5,1.1c0,0.4,0.2,0.7,0.5,1c0.1,0.1,0.4,0.3,0.7,0.4c0.2,0.1,0.5,0.2,0.9,0.4
		C412.4,229.8,412.6,229.8,412.6,229.8z"/>
	<path class="st3" d="M327.7,120.1c-0.9-2.3-1.1-3.2-3.6-2.7c-2.5,0.6-2.1,4.3-2.1,4.3c10.4,20,24.4,20.5,24.4,20.5
		C333.1,138.2,328.6,122.4,327.7,120.1z"/>
	<path class="st3" d="M385.3,93.8c-5.5,2.2-10.3,5-5,7.5c5.4,2.4,7.8,2.7,10.6,2.6c2.8-0.1,7.7,1.1,6.5,8.2
		c-1.3,7.1-6.1,35.5-44.7,31.2c0,0,12.6,9.8,33.8-2c21.1-11.8,24.3-28.4,23.1-36.8c0,0-0.4-11.9-10.7-12.9
		C398.9,91.7,392.8,90.8,385.3,93.8z"/>
	<path class="st3" d="M369.7,102.8c-49.7,9.7-47.9-1.5-26.3-9.5c21.6-8,35.9-2.4,48.8-3.1c12.9-0.7,6.2-6.6,6.2-6.6
		c-7-6.2-12-3.5-19.8-3.9c-7.7-0.5-34.3,7.7-39.8,10c-5.5,2.4-22.6,6.8-17.6,17.9C326.2,118.8,369.7,102.8,369.7,102.8z"/>
	<path class="st3" d="M415.6,99.2c2.6-0.7,7.3,4.7,3.7,8.6c-3.5,3.9-6.2,7.1-10,9.5c0,0,20.9-8.2,17.8-17.9
		c-3.1-9.7-5.3-9.6-7.5-9.3c0,0-11.6,1.4-10.1,6.2C411,101,413,100,415.6,99.2z"/>
	<path class="st3" d="M407.6,142.8c-7.3,4.1-20.2,7.1-25.7,8.4c-5.5,1.4-13.7,1.6-23.4,3.5c-13.2,2.5-38.8-5-40.1-5.3
		c-2.7-0.7-6.3-2.6-6-1.3c0.5,1.6,5.3,3.2,5.3,3.2c3.2,1.8,15.4,3.5,20.5,4.6c5.1,1,7.1,1.9,13.8,1.5c6.7-0.5,9.6,1.7,29.9-1.4
		c20.2-3.1,25.5-9.2,37.5-15.1c12-5.9,14.7-11.1,14.7-11.1C425.4,138.4,415,138.7,407.6,142.8z"/>
	<path class="st3" d="M333,117.3c0,0,4.9,0.4,10.3-0.9c2.7-0.6,5.3-2.5,4.8,0.2c-0.3,1.4,0,5.9,2.9,10.8c2.5,4.3,4.2,5.4,8.5,7.2
		c6.8,2.8,9.4,0.7,11.4,1.8c0,0-5.5,4.2-18.7,0.8c-13.2-3.4-18.6-9.7-21.8-18.7C330.3,118.5,329.4,116.4,333,117.3z"/>
</g>
</svg>
